<svg width="46" height="46" viewBox="0 0 46 46" fill="none" xmlns="http://www.w3.org/2000/svg">
<g clip-path="url(#clip0_61_1257)">
<rect x="7.41626" y="9.94591" width="33.0016" height="27.7662" fill="white"/>
<path d="M21.6541 0.0283089C19.2785 0.212498 17.4177 0.585602 15.4672 1.26568C8.14217 3.81127 2.54094 9.94145 0.684882 17.4507C-0.623332 22.7355 -0.0282602 28.3084 2.35203 33.1304C3.21158 34.8636 4.10418 36.2427 5.37461 37.7823C5.91774 38.4388 7.54238 40.0729 8.19412 40.6113C12.0101 43.7803 16.4921 45.5938 21.3707 45.9527C25.6259 46.2597 30.1598 45.301 33.82 43.308C35.8555 42.1981 37.4424 41.0363 39.0292 39.4825C40.9467 37.6029 42.3494 35.7043 43.5206 33.3901C44.843 30.7737 45.575 28.247 45.9151 25.1252C45.9906 24.4074 45.9906 21.6445 45.9151 20.8983C45.5609 17.4885 44.6068 14.4659 43.0011 11.6417C41.2112 8.48683 38.5947 5.70983 35.5391 3.72153C33.2391 2.21969 30.6368 1.124 28.0062 0.547821C26.3344 0.179443 25.1253 0.0424805 23.3071 0.0235901C22.5278 0.0188675 21.7863 0.0188637 21.6541 0.0283089ZM29.2814 12.7657C29.2814 12.7751 27.6473 15.5332 25.6496 18.8911L22.013 24.9977L23.052 27.071C23.6188 28.2092 24.0958 29.1396 24.1052 29.1396C24.1147 29.1396 26.3155 25.4511 28.998 20.9456L33.8719 12.7515H36.9843H40.0966L38.4058 15.5521C28.4832 32.0111 28.9319 31.2932 28.0676 32.1433C27.5103 32.6911 26.8161 33.2059 26.2919 33.4562C25.5173 33.8341 25.5457 33.8293 23.2362 33.8482L21.1818 33.8671L20.19 32.0583C19.6469 31.0618 19.1652 30.1881 19.1227 30.1172L19.0424 29.985L18.9338 30.1645C17.9939 31.7277 16.8841 32.8328 15.6561 33.4421C14.8108 33.8577 15.0705 33.8341 11.1553 33.853L7.69823 33.8671L7.70767 26.3437L7.72184 18.8203H10.6027H13.4837L13.5073 23.9493L13.5309 29.0782L18.0317 20.9975C20.5064 16.5534 22.5514 12.879 22.5797 12.8318C22.6223 12.7562 22.8348 12.7515 25.9518 12.7515C27.7843 12.7515 29.2814 12.761 29.2814 12.7657Z" fill="url(#paint0_linear_61_1257)"/>
</g>
<defs>
<linearGradient id="paint0_linear_61_1257" x1="0.556142" y1="46.009" x2="45.4212" y2="0.0204884" gradientUnits="userSpaceOnUse">
<stop stop-color="#6D03F5"/>
<stop offset="1" stop-color="#D74B18"/>
</linearGradient>
<clipPath id="clip0_61_1257">
<rect width="46" height="46" fill="white"/>
</clipPath>
</defs>
</svg>
